<svg width="24" height="24" viewBox="0 0 24 24" fill="none" xmlns="http://www.w3.org/2000/svg">
<path fill-rule="evenodd" clip-rule="evenodd" d="M23.04 12.0928C23.04 11.2773 22.9668 10.4932 22.8309 9.74051H12V14.1889H18.1891C17.9225 15.6264 17.1123 16.8444 15.8943 17.6598V20.5453H19.6109C21.7855 18.5432 23.04 15.5951 23.04 12.0928Z" fill="#4285F4"/>
<path fill-rule="evenodd" clip-rule="evenodd" d="M11.9995 23.3329C15.1045 23.3329 17.7077 22.3031 19.6104 20.5467L15.8938 17.6613C14.864 18.3513 13.5467 18.759 11.9995 18.759C9.00425 18.759 6.46902 16.736 5.5647 14.0179H1.72266V16.9974C3.61493 20.7558 7.50402 23.3329 11.9995 23.3329Z" fill="#34A853"/>
<path fill-rule="evenodd" clip-rule="evenodd" d="M5.56523 14.0178C5.33523 13.3278 5.20455 12.5907 5.20455 11.8328C5.20455 11.0748 5.33523 10.3378 5.56523 9.64779V6.66824H1.72318C0.944318 8.22074 0.5 9.97711 0.5 11.8328C0.5 13.6885 0.944318 15.4448 1.72318 16.9973L5.56523 14.0178Z" fill="#FBBC05"/>
<path fill-rule="evenodd" clip-rule="evenodd" d="M11.9995 4.90617C13.6879 4.90617 15.2038 5.4864 16.3956 6.62594L19.694 3.32753C17.7024 1.47185 15.0992 0.332306 11.9995 0.332306C7.50402 0.332306 3.61493 2.90935 1.72266 6.66776L5.5647 9.64731C6.46902 6.92912 9.00425 4.90617 11.9995 4.90617Z" fill="#EA4335"/>
</svg>